<?xml version="1.0" standalone="no"?><svg xmlns="http://www.w3.org/2000/svg" viewBox="0 0 1440 320"><path fill="#00cba9" fill-opacity="1" d="M0,128L16,117.3C32,107,64,85,96,80C128,75,160,85,192,96C224,107,256,117,288,149.3C320,181,352,235,384,261.3C416,288,448,288,480,245.3C512,203,544,117,576,106.7C608,96,640,160,672,176C704,192,736,160,768,176C800,192,832,256,864,272C896,288,928,256,960,208C992,160,1024,96,1056,74.7C1088,53,1120,75,1152,117.3C1184,160,1216,224,1248,256C1280,288,1312,288,1344,240C1376,192,1408,96,1424,48L1440,0L1440,320L1424,320C1408,320,1376,320,1344,320C1312,320,1280,320,1248,320C1216,320,1184,320,1152,320C1120,320,1088,320,1056,320C1024,320,992,320,960,320C928,320,896,320,864,320C832,320,800,320,768,320C736,320,704,320,672,320C640,320,608,320,576,320C544,320,512,320,480,320C448,320,416,320,384,320C352,320,320,320,288,320C256,320,224,320,192,320C160,320,128,320,96,320C64,320,32,320,16,320L0,320Z"></path></svg>