<?xml version="1.0" standalone="no"?><svg xmlns="http://www.w3.org/2000/svg" viewBox="0 0 1440 320"><path fill="#e7008a" fill-opacity="1" d="M0,160L24,138.7C48,117,96,75,144,90.7C192,107,240,181,288,186.7C336,192,384,128,432,96C480,64,528,64,576,96C624,128,672,192,720,234.7C768,277,816,299,864,266.7C912,235,960,149,1008,128C1056,107,1104,149,1152,181.3C1200,213,1248,235,1296,218.7C1344,203,1392,149,1416,122.7L1440,96L1440,320L1416,320C1392,320,1344,320,1296,320C1248,320,1200,320,1152,320C1104,320,1056,320,1008,320C960,320,912,320,864,320C816,320,768,320,720,320C672,320,624,320,576,320C528,320,480,320,432,320C384,320,336,320,288,320C240,320,192,320,144,320C96,320,48,320,24,320L0,320Z"></path></svg>