<?xml version="1.0" standalone="no"?>
<svg xmlns:xlink="http://www.w3.org/1999/xlink" id="wave" style="transform:rotate(0deg); transition: 0.3s" viewBox="0 0 1440 490" version="1.1" xmlns="http://www.w3.org/2000/svg"><defs><linearGradient id="sw-gradient-0" x1="0" x2="0" y1="1" y2="0"><stop stop-color="rgba(243, 62, 62, 1)" offset="0%"/><stop stop-color="rgba(0, 0, 0, 1)" offset="100%"/></linearGradient></defs><path style="transform:translate(0, 0px); opacity:1" fill="url(#sw-gradient-0)" d="M0,0L21.8,40.8C43.6,82,87,163,131,196C174.5,229,218,212,262,245C305.5,278,349,359,393,392C436.4,425,480,408,524,392C567.3,376,611,359,655,351.2C698.2,343,742,343,785,310.3C829.1,278,873,212,916,187.8C960,163,1004,180,1047,212.3C1090.9,245,1135,294,1178,318.5C1221.8,343,1265,343,1309,334.8C1352.7,327,1396,310,1440,285.8C1483.6,261,1527,229,1571,212.3C1614.5,196,1658,196,1702,220.5C1745.5,245,1789,294,1833,326.7C1876.4,359,1920,376,1964,383.8C2007.3,392,2051,392,2095,392C2138.2,392,2182,392,2225,351.2C2269.1,310,2313,229,2356,196C2400,163,2444,180,2487,228.7C2530.9,278,2575,359,2618,367.5C2661.8,376,2705,310,2749,245C2792.7,180,2836,114,2880,114.3C2923.6,114,2967,180,3011,187.8C3054.5,196,3098,147,3120,122.5L3141.8,98L3141.8,490L3120,490C3098.2,490,3055,490,3011,490C2967.3,490,2924,490,2880,490C2836.4,490,2793,490,2749,490C2705.5,490,2662,490,2618,490C2574.5,490,2531,490,2487,490C2443.6,490,2400,490,2356,490C2312.7,490,2269,490,2225,490C2181.8,490,2138,490,2095,490C2050.9,490,2007,490,1964,490C1920,490,1876,490,1833,490C1789.1,490,1745,490,1702,490C1658.2,490,1615,490,1571,490C1527.3,490,1484,490,1440,490C1396.4,490,1353,490,1309,490C1265.5,490,1222,490,1178,490C1134.5,490,1091,490,1047,490C1003.6,490,960,490,916,490C872.7,490,829,490,785,490C741.8,490,698,490,655,490C610.9,490,567,490,524,490C480,490,436,490,393,490C349.1,490,305,490,262,490C218.2,490,175,490,131,490C87.3,490,44,490,22,490L0,490Z"/><defs><linearGradient id="sw-gradient-1" x1="0" x2="0" y1="1" y2="0"><stop stop-color="rgba(123.267, 31.012, 114.022, 1)" offset="0%"/><stop stop-color="rgba(168.802, 163.371, 1.489, 1)" offset="100%"/></linearGradient></defs><path style="transform:translate(0, 50px); opacity:0.9" fill="url(#sw-gradient-1)" d="M0,441L21.8,416.5C43.6,392,87,343,131,277.7C174.5,212,218,131,262,114.3C305.5,98,349,147,393,147C436.4,147,480,98,524,98C567.3,98,611,147,655,147C698.2,147,742,98,785,122.5C829.1,147,873,245,916,236.8C960,229,1004,114,1047,122.5C1090.9,131,1135,261,1178,334.8C1221.8,408,1265,425,1309,383.8C1352.7,343,1396,245,1440,204.2C1483.6,163,1527,180,1571,155.2C1614.5,131,1658,65,1702,81.7C1745.5,98,1789,196,1833,204.2C1876.4,212,1920,131,1964,138.8C2007.3,147,2051,245,2095,285.8C2138.2,327,2182,310,2225,253.2C2269.1,196,2313,98,2356,89.8C2400,82,2444,163,2487,228.7C2530.9,294,2575,343,2618,310.3C2661.8,278,2705,163,2749,122.5C2792.7,82,2836,114,2880,138.8C2923.6,163,2967,180,3011,220.5C3054.5,261,3098,327,3120,359.3L3141.8,392L3141.8,490L3120,490C3098.2,490,3055,490,3011,490C2967.3,490,2924,490,2880,490C2836.4,490,2793,490,2749,490C2705.5,490,2662,490,2618,490C2574.5,490,2531,490,2487,490C2443.6,490,2400,490,2356,490C2312.7,490,2269,490,2225,490C2181.8,490,2138,490,2095,490C2050.9,490,2007,490,1964,490C1920,490,1876,490,1833,490C1789.1,490,1745,490,1702,490C1658.2,490,1615,490,1571,490C1527.3,490,1484,490,1440,490C1396.4,490,1353,490,1309,490C1265.5,490,1222,490,1178,490C1134.5,490,1091,490,1047,490C1003.6,490,960,490,916,490C872.7,490,829,490,785,490C741.8,490,698,490,655,490C610.9,490,567,490,524,490C480,490,436,490,393,490C349.1,490,305,490,262,490C218.2,490,175,490,131,490C87.3,490,44,490,22,490L0,490Z"/></svg>