<?xml version="1.0" standalone="no"?><svg xmlns="http://www.w3.org/2000/svg" viewBox="0 0 1440 320"><path fill="#ff5500" fill-opacity="1" d="M0,96L16,112C32,128,64,160,96,186.7C128,213,160,235,192,224C224,213,256,171,288,149.3C320,128,352,128,384,154.7C416,181,448,235,480,250.7C512,267,544,245,576,208C608,171,640,117,672,85.3C704,53,736,43,768,48C800,53,832,75,864,74.7C896,75,928,53,960,85.3C992,117,1024,203,1056,208C1088,213,1120,139,1152,128C1184,117,1216,171,1248,165.3C1280,160,1312,96,1344,58.7C1376,21,1408,11,1424,5.3L1440,0L1440,320L1424,320C1408,320,1376,320,1344,320C1312,320,1280,320,1248,320C1216,320,1184,320,1152,320C1120,320,1088,320,1056,320C1024,320,992,320,960,320C928,320,896,320,864,320C832,320,800,320,768,320C736,320,704,320,672,320C640,320,608,320,576,320C544,320,512,320,480,320C448,320,416,320,384,320C352,320,320,320,288,320C256,320,224,320,192,320C160,320,128,320,96,320C64,320,32,320,16,320L0,320Z"></path></svg>